{
  "source": "C:\\Users\\Peter\\Desktop\\stuff\\MIUN\\quantitative_research\\video_compression\\videos\\BVI-HD\\BVI-HD_CDVL_videos\\ORIG\\Bookcase_1920x1080_60fps.mp4",
  "output": "C:\\Users\\Peter\\Desktop\\stuff\\MIUN\\quantitative_research\\video_compression\\compressed_videos\\BVI-HD\\av1\\8\\Bookcase_1920x1080_60fps_av1.mkv",
  "codec": "av1",
  "ok": "Input #0, mov,mp4,m4a,3gp,3g2,mj2, from 'C:\\Users\\Peter\\Desktop\\stuff\\MIUN\\quantitative_research\\video_compression\\videos\\BVI-HD\\BVI-HD_CDVL_videos\\ORIG\\Bookcase_1920x1080_60fps.mp4':\n  Metadata:\n    major_brand     : isom\n    minor_version   : 512\n    compatible_brands: isomiso2avc1mp41\n    encoder         : Lavf54.28.101\n  Duration: 00:00:05.00, start: 0.000000, bitrate: 336321 kb/s\n  Stream #0:0[0x1](und): Video: h264 (High 4:4:4 Predictive) (avc1 / 0x31637661), yuv420p(progressive), 1920x1080, 336316 kb/s, 60 fps, 60 tbr, 60 tbn (default)\n    Metadata:\n      handler_name    : VideoHandler\n      vendor_id       : [0][0][0][0]\n[out#0/matroska @ 000001eddc8fad80] Codec AVOption b:a (set bitrate (in bits/s)) has not been used for any stream. The most likely reason is either wrong type (e.g. a video option with no video streams) or that it is a private option of some decoder which was not actually used for any stream.\nStream mapping:\n  Stream #0:0 -> #0:0 (h264 (native) -> av1 (libsvtav1))\nPress [q] to stop, [?] for help\nSvt[info]: -------------------------------------------\nSvt[info]: SVT [version]:\tSVT-AV1 Encoder Lib v3.1.0-19-g6ecfe8ec\nSvt[info]: SVT [build]  :\tGCC 15.2.0\t 64 bit\nSvt[info]: LIB Build date: Aug 17 2025 11:37:13\nSvt[info]: -------------------------------------------\nSvt[info]: Level of Parallelism: 5\nSvt[info]: Number of PPCS 93\nSvt[info]: [asm level on system : up to avx2]\nSvt[info]: [asm level selected : up to avx2]\nSvt[info]: -------------------------------------------\nSvt[info]: SVT [config]: main profile\ttier (auto)\tlevel (auto)\nSvt[info]: SVT [config]: width / height / fps numerator / fps denominator \t\t: 1920 / 1080 / 60 / 1\nSvt[info]: SVT [config]: bit-depth / color format \t\t\t\t\t: 8 / YUV420\nSvt[info]: SVT [config]: preset / tune / pred struct \t\t\t\t\t: 4 / PSNR / random access\nSvt[info]: SVT [config]: gop size / mini-gop size / key-frame type \t\t\t: 321 / 16 / key frame\nSvt[info]: SVT [config]: BRC mode / target bitrate (kbps)\t\t\t\t: VBR / 8000 \nSvt[info]: SVT [config]: AQ mode / Variance Boost \t\t\t\t\t: 2 / 0\nSvt[info]: SVT [config]: sharpness / luminance-based QP bias \t\t\t\t: 0 / 0\nSvt[info]: SVT [config]: QP scale compress strength \t\t\t\t\t: 0\nSvt[info]: -------------------------------------------\nOutput #0, matroska, to 'C:\\Users\\Peter\\Desktop\\stuff\\MIUN\\quantitative_research\\video_compression\\compressed_videos\\BVI-HD\\av1\\8\\Bookcase_1920x1080_60fps_av1.mkv':\n  Metadata:\n    major_brand     : isom\n    minor_version   : 512\n    compatible_brands: isomiso2avc1mp41\n    encoder         : Lavf62.3.100\n  Stream #0:0(und): Video: av1 (AV01 / 0x31305641), yuv420p(tv, progressive), 1920x1080, q=2-31, 8000 kb/s, 60 fps, 1k tbn (default)\n    Metadata:\n      encoder         : Lavc62.11.100 libsvtav1\n      handler_name    : VideoHandler\n      vendor_id       : [0][0][0][0]\n    Side data:\n      cpb: bitrate max/min/avg: 0/0/8000000 buffer size: 8000000 vbv_delay: N/A\nframe=    0 fps=0.0 q=0.0 size=       0KiB time=N/A bitrate=N/A speed=N/A elapsed=0:00:01.11    \nframe=    0 fps=0.0 q=0.0 size=       0KiB time=N/A bitrate=N/A speed=N/A elapsed=0:00:02.10    \nframe=    0 fps=0.0 q=0.0 size=       0KiB time=N/A bitrate=N/A speed=N/A elapsed=0:00:02.75    \nframe=    0 fps=0.0 q=0.0 size=       0KiB time=N/A bitrate=N/A speed=N/A elapsed=0:00:03.43    \nframe=    0 fps=0.0 q=0.0 size=       0KiB time=N/A bitrate=N/A speed=N/A elapsed=0:00:04.05    \nframe=    0 fps=0.0 q=0.0 size=       0KiB time=N/A bitrate=N/A speed=N/A elapsed=0:00:04.57    \nframe=    1 fps=0.2 q=6.0 size=       1KiB time=00:00:00.00 bitrate=N/A speed=   0x elapsed=0:00:05.09    \nframe=    1 fps=0.2 q=6.0 size=       1KiB time=00:00:00.00 bitrate=N/A speed=   0x elapsed=0:00:05.62    \nframe=    1 fps=0.2 q=6.0 size=       1KiB time=00:00:00.00 bitrate=N/A speed=   0x elapsed=0:00:06.15    \nframe=    2 fps=0.3 q=28.0 size=       1KiB time=00:00:00.01 bitrate= 341.8kbits/s speed=0.0025x elapsed=0:00:06.67    \nframe=    6 fps=0.8 q=24.0 size=       1KiB time=00:00:00.08 bitrate=  68.4kbits/s speed=0.0114x elapsed=0:00:07.28    \nframe=   10 fps=1.3 q=22.0 size=       1KiB time=00:00:00.13 bitrate=  42.7kbits/s speed=0.017x elapsed=0:00:07.84    \nframe=   13 fps=1.5 q=21.0 size=       1KiB time=00:00:00.20 bitrate=  28.5kbits/s speed=0.0235x elapsed=0:00:08.49    \nframe=   18 fps=2.0 q=18.0 size=       1KiB time=00:00:00.26 bitrate=  21.4kbits/s speed=0.0294x elapsed=0:00:09.07    \nframe=   21 fps=2.2 q=20.0 size=       1KiB time=00:00:00.33 bitrate=  17.1kbits/s speed=0.0346x elapsed=0:00:09.62    \nframe=   24 fps=2.3 q=17.0 size=       1KiB time=00:00:00.38 bitrate=  14.9kbits/s speed=0.0375x elapsed=0:00:10.22    \nframe=   26 fps=2.4 q=15.0 size=       1KiB time=00:00:00.41 bitrate=  13.7kbits/s speed=0.0387x elapsed=0:00:10.77    \nframe=   27 fps=2.4 q=17.0 size=       1KiB time=00:00:00.43 bitrate=  13.1kbits/s speed=0.0379x elapsed=0:00:11.43    \nframe=   32 fps=2.7 q=14.0 size=       1KiB time=00:00:00.51 bitrate=  11.0kbits/s speed=0.0431x elapsed=0:00:11.99    \nframe=   35 fps=2.8 q=20.0 size=       1KiB time=00:00:00.56 bitrate=  10.1kbits/s speed=0.0452x elapsed=0:00:12.53    \nframe=   37 fps=2.8 q=20.0 size=       1KiB time=00:00:00.60 bitrate=   9.5kbits/s speed=0.0459x elapsed=0:00:13.07    \nframe=   39 fps=2.9 q=12.0 size=       1KiB time=00:00:00.63 bitrate=   9.0kbits/s speed=0.0464x elapsed=0:00:13.65    \nframe=   42 fps=3.0 q=28.0 size=       1KiB time=00:00:00.68 bitrate=   8.3kbits/s speed=0.048x elapsed=0:00:14.23    \nframe=   44 fps=3.0 q=15.0 size=       1KiB time=00:00:00.71 bitrate=   7.9kbits/s speed=0.0483x elapsed=0:00:14.84    \nframe=   49 fps=3.2 q=6.0 size=       1KiB time=00:00:00.80 bitrate=   7.1kbits/s speed=0.052x elapsed=0:00:15.39    \nframe=   51 fps=3.2 q=15.0 size=       1KiB time=00:00:00.83 bitrate=   6.8kbits/s speed=0.0522x elapsed=0:00:15.95    \nframe=   55 fps=3.3 q=17.0 size=       1KiB time=00:00:00.90 bitrate=   6.3kbits/s speed=0.0546x elapsed=0:00:16.48    \nframe=   58 fps=3.4 q=14.0 size=       1KiB time=00:00:00.95 bitrate=   6.0kbits/s speed=0.0556x elapsed=0:00:17.07    \nframe=   61 fps=3.5 q=16.0 size=       1KiB time=00:00:00.98 bitrate=   5.8kbits/s speed=0.0557x elapsed=0:00:17.65    \nframe=   65 fps=3.6 q=4.0 size=       1KiB time=00:00:01.06 bitrate=   5.3kbits/s speed=0.0584x elapsed=0:00:18.27    \nframe=   69 fps=3.7 q=14.0 size=       1KiB time=00:00:01.13 bitrate=   5.0kbits/s speed=0.0603x elapsed=0:00:18.80    \nframe=   71 fps=3.7 q=15.0 size=       1KiB time=00:00:01.16 bitrate=   4.9kbits/s speed=0.0604x elapsed=0:00:19.32    \nframe=   75 fps=3.7 q=15.0 size=       1KiB time=00:00:01.23 bitrate=   4.6kbits/s speed=0.0616x elapsed=0:00:20.01    \nframe=   80 fps=3.9 q=17.0 size=       1KiB time=00:00:01.31 bitrate=   4.3kbits/s speed=0.0639x elapsed=0:00:20.61    \nframe=   85 fps=4.0 q=21.0 size=       1KiB time=00:00:01.40 bitrate=   4.1kbits/s speed=0.066x elapsed=0:00:21.20    \nframe=   88 fps=4.0 q=18.0 size=       1KiB time=00:00:01.43 bitrate=   4.0kbits/s speed=0.0658x elapsed=0:00:21.76    \nframe=   91 fps=4.1 q=17.0 size=       1KiB time=00:00:01.50 bitrate=   3.8kbits/s speed=0.067x elapsed=0:00:22.39    \nframe=   95 fps=4.1 q=15.0 size=       1KiB time=00:00:01.56 bitrate=   3.6kbits/s speed=0.0681x elapsed=0:00:22.98    \nframe=   98 fps=4.2 q=18.0 size=       1KiB time=00:00:01.61 bitrate=   3.5kbits/s speed=0.0686x elapsed=0:00:23.55    \nframe=  103 fps=4.3 q=17.0 size=       1KiB time=00:00:01.70 bitrate=   3.4kbits/s speed=0.0705x elapsed=0:00:24.09    \nframe=  106 fps=4.3 q=18.0 size=       1KiB time=00:00:01.73 bitrate=   3.3kbits/s speed=0.0702x elapsed=0:00:24.68    \nframe=  108 fps=4.3 q=15.0 size=       1KiB time=00:00:01.78 bitrate=   3.2kbits/s speed=0.0705x elapsed=0:00:25.28    \nframe=  112 fps=4.3 q=17.0 size=       1KiB time=00:00:01.85 bitrate=   3.1kbits/s speed=0.0714x elapsed=0:00:25.92    \nframe=  117 fps=4.4 q=19.0 size=       1KiB time=00:00:01.91 bitrate=   3.0kbits/s speed=0.0725x elapsed=0:00:26.44    \nframe=  119 fps=4.4 q=14.0 size=       1KiB time=00:00:01.96 bitrate=   2.9kbits/s speed=0.0728x elapsed=0:00:27.00    \nframe=  123 fps=4.5 q=24.0 size=       1KiB time=00:00:02.03 bitrate=   2.8kbits/s speed=0.0739x elapsed=0:00:27.52    \nframe=  127 fps=4.5 q=16.0 size=       1KiB time=00:00:02.10 bitrate=   2.7kbits/s speed=0.0748x elapsed=0:00:28.08    \nframe=  130 fps=4.5 q=20.0 size=       1KiB time=00:00:02.15 bitrate=   2.6kbits/s speed=0.0751x elapsed=0:00:28.61    \nframe=  134 fps=4.6 q=20.0 size=       1KiB time=00:00:02.21 bitrate=   2.6kbits/s speed=0.076x elapsed=0:00:29.15    \nframe=  138 fps=4.6 q=20.0 size=       1KiB time=00:00:02.26 bitrate=   2.5kbits/s speed=0.0762x elapsed=0:00:29.73    \nframe=  142 fps=4.7 q=21.0 size=       1KiB time=00:00:02.35 bitrate=   2.4kbits/s speed=0.0775x elapsed=0:00:30.34    \nframe=  147 fps=4.8 q=20.0 size=       1KiB time=00:00:02.41 bitrate=   2.4kbits/s speed=0.0783x elapsed=0:00:30.88    \nframe=  150 fps=4.8 q=21.0 size=       1KiB time=00:00:02.48 bitrate=   2.3kbits/s speed=0.079x elapsed=0:00:31.43    \nframe=  153 fps=4.8 q=13.0 size=       1KiB time=00:00:02.51 bitrate=   2.3kbits/s speed=0.0786x elapsed=0:00:32.01    \nframe=  156 fps=4.8 q=21.0 size=       1KiB time=00:00:02.56 bitrate=   2.2kbits/s speed=0.0789x elapsed=0:00:32.54    \nframe=  160 fps=4.8 q=19.0 size=       1KiB time=00:00:02.65 bitrate=   2.1kbits/s speed=0.0799x elapsed=0:00:33.18    \nframe=  165 fps=4.9 q=20.0 size=       1KiB time=00:00:02.71 bitrate=   2.1kbits/s speed=0.0806x elapsed=0:00:33.71    \nframe=  166 fps=4.8 q=18.0 size=       1KiB time=00:00:02.75 bitrate=   2.1kbits/s speed=0.08x elapsed=0:00:34.36    \nframe=  168 fps=4.8 q=18.0 size=       1KiB time=00:00:02.78 bitrate=   2.0kbits/s speed=0.0797x elapsed=0:00:34.90    \nframe=  172 fps=4.8 q=20.0 size=       1KiB time=00:00:02.83 bitrate=   2.0kbits/s speed=0.0799x elapsed=0:00:35.47    \nframe=  175 fps=4.8 q=18.0 size=       1KiB time=00:00:02.90 bitrate=   2.0kbits/s speed=0.0803x elapsed=0:00:36.10    \nframe=  179 fps=4.9 q=22.0 size=       1KiB time=00:00:02.96 bitrate=   1.9kbits/s speed=0.081x elapsed=0:00:36.61    \nframe=  181 fps=4.9 q=22.0 size=       1KiB time=00:00:03.00 bitrate=   1.9kbits/s speed=0.0807x elapsed=0:00:37.18    \nframe=  182 fps=4.8 q=17.0 size=       1KiB time=00:00:03.01 bitrate=   1.9kbits/s speed=0.0799x elapsed=0:00:37.75    \nframe=  185 fps=4.8 q=15.0 size=       1KiB time=00:00:03.05 bitrate=   1.9kbits/s speed=0.0795x elapsed=0:00:38.36    \nframe=  187 fps=4.8 q=25.0 size=       1KiB time=00:00:03.10 bitrate=   1.8kbits/s speed=0.0797x elapsed=0:00:38.91    \nframe=  189 fps=4.8 q=22.0 size=       1KiB time=00:00:03.13 bitrate=   1.8kbits/s speed=0.0795x elapsed=0:00:39.43    \nframe=  195 fps=4.9 q=25.0 size=       1KiB time=00:00:03.23 bitrate=   1.8kbits/s speed=0.0809x elapsed=0:00:39.95    \nframe=  198 fps=4.9 q=25.0 size=       1KiB time=00:00:03.28 bitrate=   1.7kbits/s speed=0.0809x elapsed=0:00:40.58    \nframe=  201 fps=4.9 q=16.0 size=       1KiB time=00:00:03.31 bitrate=   1.7kbits/s speed=0.0807x elapsed=0:00:41.10    \nframe=  207 fps=5.0 q=19.0 size=       1KiB time=00:00:03.40 bitrate=   1.7kbits/s speed=0.0816x elapsed=0:00:41.68    \nframe=  209 fps=4.9 q=5.0 size=       1KiB time=00:00:03.46 bitrate=   1.6kbits/s speed=0.082x elapsed=0:00:42.28    \nframe=  215 fps=5.0 q=23.0 size=       1KiB time=00:00:03.56 bitrate=   1.6kbits/s speed=0.0833x elapsed=0:00:42.82    \nframe=  217 fps=5.0 q=15.0 size=       1KiB time=00:00:03.60 bitrate=   1.6kbits/s speed=0.0831x elapsed=0:00:43.34    \nframe=  219 fps=5.0 q=23.0 size=       1KiB time=00:00:03.63 bitrate=   1.6kbits/s speed=0.0828x elapsed=0:00:43.89    \nframe=  223 fps=5.0 q=20.0 size=       1KiB time=00:00:03.70 bitrate=   1.5kbits/s speed=0.0831x elapsed=0:00:44.53    \nframe=  229 fps=5.1 q=24.0 size=       1KiB time=00:00:03.76 bitrate=   1.5kbits/s speed=0.0835x elapsed=0:00:45.12    \nframe=  233 fps=5.1 q=16.0 size=       1KiB time=00:00:03.86 bitrate=   1.5kbits/s speed=0.0846x elapsed=0:00:45.71    \nframe=  237 fps=5.1 q=19.0 size=       1KiB time=00:00:03.90 bitrate=   1.5kbits/s speed=0.0843x elapsed=0:00:46.26    \nframe=  241 fps=5.1 q=6.0 size=       1KiB time=00:00:03.96 bitrate=   1.4kbits/s speed=0.0846x elapsed=0:00:46.87    \nframe=  245 fps=5.2 q=21.0 size=       1KiB time=00:00:04.06 bitrate=   1.4kbits/s speed=0.0857x elapsed=0:00:47.46    \nframe=  249 fps=5.2 q=15.0 size=       1KiB time=00:00:04.13 bitrate=   1.4kbits/s speed=0.0861x elapsed=0:00:47.99    \nframe=  251 fps=5.2 q=22.0 size=       1KiB time=00:00:04.13 bitrate=   1.4kbits/s speed=0.0852x elapsed=0:00:48.51    \nframe=  253 fps=5.1 q=19.0 size=       1KiB time=00:00:04.20 bitrate=   1.4kbits/s speed=0.0854x elapsed=0:00:49.15    \nframe=  257 fps=5.2 q=6.0 size=       1KiB time=00:00:04.23 bitrate=   1.3kbits/s speed=0.0851x elapsed=0:00:49.73    \nframe=  261 fps=5.2 q=24.0 size=       1KiB time=00:00:04.33 bitrate=   1.3kbits/s speed=0.0862x elapsed=0:00:50.29    \nframe=  265 fps=5.2 q=17.0 size=       1KiB time=00:00:04.40 bitrate=   1.3kbits/s speed=0.0866x elapsed=0:00:50.83    \nframe=  267 fps=5.2 q=21.0 size=       1KiB time=00:00:04.43 bitrate=   1.3kbits/s speed=0.0863x elapsed=0:00:51.38    \nframe=  275 fps=5.3 q=24.0 size=       1KiB time=00:00:04.53 bitrate=   1.3kbits/s speed=0.0873x elapsed=0:00:51.94    \nframe=  279 fps=5.3 q=23.0 size=       1KiB time=00:00:04.63 bitrate=   1.2kbits/s speed=0.0883x elapsed=0:00:52.50    \nframe=  283 fps=5.3 q=23.0 size=       1KiB time=00:00:04.66 bitrate=   1.2kbits/s speed=0.088x elapsed=0:00:53.03    \nframe=  293 fps=5.5 q=21.0 size=       1KiB time=00:00:04.86 bitrate=   1.2kbits/s speed=0.0909x elapsed=0:00:53.55    \n[out#0/matroska @ 000001eddc8fad80] video:4576KiB audio:0KiB subtitle:0KiB other streams:0KiB global headers:0KiB muxing overhead: 0.046035%\nframe=  300 fps=5.6 q=30.0 Lsize=    4578KiB time=00:00:04.98 bitrate=7525.5kbits/s speed=0.0928x elapsed=0:00:53.68    \n",
  "seconds": 54.1856734752655,
  "probe_out": {}
}